<svg xmlns="http://www.w3.org/2000/svg" viewBox="0 0 236 132" width="236" height="132" role="img" aria-label="TaskFlow tile: a task card moving across todo, doing and done columns."><defs><linearGradient id="acc" x1="0" y1="0" x2="1" y2="0"><stop offset="0" stop-color="#f59e0b" stop-opacity="0"/><stop offset=".5" stop-color="#f59e0b"/><stop offset="1" stop-color="#f59e0b" stop-opacity="0"/></linearGradient><linearGradient id="cardbg" x1="0" y1="0" x2=".7" y2="1"><stop offset="0" stop-color="#0b1220"/><stop offset="1" stop-color="#070d17"/></linearGradient><radialGradient id="acch" cx=".85" cy="0" r="1"><stop offset="0" stop-color="#f59e0b" stop-opacity=".22"/><stop offset="1" stop-color="#f59e0b" stop-opacity="0"/></radialGradient><clipPath id="cvz"><rect x="14" y="58" width="208" height="46" rx="6"/></clipPath></defs><rect x=".5" y=".5" width="235" height="131" rx="13" fill="url(#cardbg)" stroke="#17293d"/><rect x=".5" y=".5" width="235" height="131" rx="13" fill="url(#acch)"/><rect x="14" y="0" width="208" height="2" fill="url(#acc)"><animate attributeName="opacity" values=".35;1;.35" dur="3.4s" repeatCount="indefinite"/></rect><text x="16" y="28" font-family="ui-monospace,SFMono-Regular,Menlo,DejaVu Sans Mono,Consolas,monospace" font-size="13" font-weight="700" fill="#e2e8f0" letter-spacing=".3">TASKFLOW</text><text x="16" y="46" font-family="ui-monospace,SFMono-Regular,Menlo,DejaVu Sans Mono,Consolas,monospace" font-size="9.5" fill="#64748b" letter-spacing=".7">React · Kanban · State</text><g clip-path="url(#cvz)"><rect x="20" y="60" width="60" height="42" rx="5" fill="#f59e0b" fill-opacity=".07" stroke="#f59e0b" stroke-opacity=".28"/><text x="25" y="70" font-family="ui-monospace,SFMono-Regular,Menlo,DejaVu Sans Mono,Consolas,monospace" font-size="7.5" fill="#64748b" letter-spacing=".6">todo</text><rect x="25" y="75" width="40" height="5" rx="2.5" fill="#f59e0b" fill-opacity=".28"/><rect x="25" y="84" width="28" height="5" rx="2.5" fill="#f59e0b" fill-opacity=".28"/><rect x="88" y="60" width="60" height="42" rx="5" fill="#f59e0b" fill-opacity=".07" stroke="#f59e0b" stroke-opacity=".28"/><text x="93" y="70" font-family="ui-monospace,SFMono-Regular,Menlo,DejaVu Sans Mono,Consolas,monospace" font-size="7.5" fill="#64748b" letter-spacing=".6">doing</text><rect x="93" y="75" width="40" height="5" rx="2.5" fill="#f59e0b" fill-opacity=".28"/><rect x="93" y="84" width="28" height="5" rx="2.5" fill="#f59e0b" fill-opacity=".28"/><rect x="156" y="60" width="60" height="42" rx="5" fill="#f59e0b" fill-opacity=".07" stroke="#f59e0b" stroke-opacity=".28"/><text x="161" y="70" font-family="ui-monospace,SFMono-Regular,Menlo,DejaVu Sans Mono,Consolas,monospace" font-size="7.5" fill="#64748b" letter-spacing=".6">done</text><rect x="161" y="75" width="40" height="5" rx="2.5" fill="#f59e0b" fill-opacity=".28"/><rect x="161" y="84" width="28" height="5" rx="2.5" fill="#f59e0b" fill-opacity=".28"/><g><animateMotion dur="4.2s" repeatCount="indefinite" keyPoints="0;0;.5;.5;1;1" keyTimes="0;.12;.42;.6;.9;1" calcMode="linear" path="M 25 92 L 93 92 L 161 92"/><rect width="44" height="10" rx="3" fill="#f59e0b" fill-opacity=".95"/><rect x="4" y="3.5" width="24" height="3" rx="1.5" fill="#0b1220" fill-opacity=".6"/></g></g><circle cx="20" cy="118" r="3" fill="#f59e0b"><animate attributeName="opacity" values="1;.25;1" dur="2.2s" repeatCount="indefinite"/></circle><text x="30" y="121.5" font-family="ui-monospace,SFMono-Regular,Menlo,DejaVu Sans Mono,Consolas,monospace" font-size="9" fill="#64748b" letter-spacing="1.1">LIVE</text><text x="220" y="121.5" text-anchor="end" font-family="ui-monospace,SFMono-Regular,Menlo,DejaVu Sans Mono,Consolas,monospace" font-size="9" fill="#f59e0b" letter-spacing="1.1">OPEN -&gt;</text></svg>