<?xml version="1.0" encoding="UTF-8"?>
<svg xmlns="http://www.w3.org/2000/svg" width="1200" height="300" viewBox="0 0 1200 300" role="img" aria-label="Instrument test report showing deployment availability and latency">
<defs>
<pattern id="minor-grid" width="10" height="10" patternUnits="userSpaceOnUse"><path d="M 10 0 L 0 0 0 10" fill="none" stroke="#0d2338" stroke-width="1"/></pattern>
<pattern id="major-grid" width="50" height="50" patternUnits="userSpaceOnUse"><rect width="50" height="50" fill="url(#minor-grid)"/><path d="M 50 0 L 0 0 0 50" fill="none" stroke="#13314c" stroke-width="1"/></pattern>
<clipPath id="chart-clip"><rect x="320" y="86" width="846" height="162"/></clipPath>
</defs>
<rect width="1200" height="300" fill="#071426"/>
<rect width="1200" height="300" fill="url(#major-grid)"/>
<rect x="10" y="10" width="1180" height="280" fill="none" stroke="#4cc9f0" stroke-width="1.5"/>
<path d="M10 70H1190M10 258H1190M306 70V258" stroke="#13314c" stroke-width="1"/>
<rect x="28" y="20" width="455" height="35" fill="#0a1b30" stroke="#4cc9f0"/>
<text x="42.0" y="42.0" fill="#dceafc" font-family="ui-monospace,SFMono-Regular,Menlo,DejaVu Sans Mono,Consolas,monospace" font-size="14" text-anchor="start" font-weight="700">TEST REPORT · AVAILABILITY &amp; LATENCY</text>
<text x="1172.0" y="42.0" fill="#dceafc" font-family="ui-monospace,SFMono-Regular,Menlo,DejaVu Sans Mono,Consolas,monospace" font-size="12" text-anchor="end" font-weight="700">UTC 2026-09-08T16:50:01Z</text>
<text x="28.0" y="84.0" fill="#5f89ad" font-family="ui-monospace,SFMono-Regular,Menlo,DejaVu Sans Mono,Consolas,monospace" font-size="12" text-anchor="start" font-weight="700">TARGET</text>
<text x="205.0" y="84.0" fill="#5f89ad" font-family="ui-monospace,SFMono-Regular,Menlo,DejaVu Sans Mono,Consolas,monospace" font-size="12" text-anchor="middle" font-weight="700">HTTP</text>
<text x="294.0" y="84.0" fill="#5f89ad" font-family="ui-monospace,SFMono-Regular,Menlo,DejaVu Sans Mono,Consolas,monospace" font-size="12" text-anchor="end" font-weight="700">LATEST</text>
<text x="320.0" y="84.0" fill="#5f89ad" font-family="ui-monospace,SFMono-Regular,Menlo,DejaVu Sans Mono,Consolas,monospace" font-size="12" text-anchor="start" font-weight="700">LATENCY SCALE / 0-400 MS</text>
<text x="1166.0" y="84.0" fill="#5f89ad" font-family="ui-monospace,SFMono-Regular,Menlo,DejaVu Sans Mono,Consolas,monospace" font-size="12" text-anchor="end" font-weight="700">RECORDED HISTORY</text>
<path d="M320 92V246M425 92V246M530 92V246M635 92V246" stroke="#13314c" stroke-dasharray="2 4"/>
<text x="320.0" y="258.0" fill="#5f89ad" font-family="ui-monospace,SFMono-Regular,Menlo,DejaVu Sans Mono,Consolas,monospace" font-size="12" text-anchor="start">0</text>
<text x="425.0" y="258.0" fill="#5f89ad" font-family="ui-monospace,SFMono-Regular,Menlo,DejaVu Sans Mono,Consolas,monospace" font-size="12" text-anchor="middle">150</text>
<text x="530.0" y="258.0" fill="#5f89ad" font-family="ui-monospace,SFMono-Regular,Menlo,DejaVu Sans Mono,Consolas,monospace" font-size="12" text-anchor="middle">300</text>
<text x="635.0" y="258.0" fill="#5f89ad" font-family="ui-monospace,SFMono-Regular,Menlo,DejaVu Sans Mono,Consolas,monospace" font-size="12" text-anchor="middle">400</text>
<rect x="20" y="97" width="1150" height="38" fill="#0c2136"/>
<path d="M20 136H1170" stroke="#13314c"/>
<text x="28.0" y="114.0" fill="#dceafc" font-family="ui-monospace,SFMono-Regular,Menlo,DejaVu Sans Mono,Consolas,monospace" font-size="13" text-anchor="start" font-weight="700">portfolio</text>
<rect x="175" y="99" width="60" height="18" fill="#52d1a4"/>
<text x="205.0" y="112.0" fill="#071426" font-family="ui-monospace,SFMono-Regular,Menlo,DejaVu Sans Mono,Consolas,monospace" font-size="12" text-anchor="middle" font-weight="700">200 OK</text>
<text x="294.0" y="113.0" fill="#dceafc" font-family="ui-monospace,SFMono-Regular,Menlo,DejaVu Sans Mono,Consolas,monospace" font-size="13" text-anchor="end" font-weight="700" opacity="0">0 ms<animate attributeName="opacity" values="1;1;0;0" keyTimes="0;0.07;0.071;1" dur="12s" repeatCount="indefinite"/></text><text x="294.0" y="113.0" fill="#dceafc" font-family="ui-monospace,SFMono-Regular,Menlo,DejaVu Sans Mono,Consolas,monospace" font-size="13" text-anchor="end" font-weight="700" opacity="0">62 ms<animate attributeName="opacity" values="0;0;1;1;0;0" keyTimes="0;0.07;0.071;0.12;0.121;1" dur="12s" repeatCount="indefinite"/></text><text x="294.0" y="113.0" fill="#dceafc" font-family="ui-monospace,SFMono-Regular,Menlo,DejaVu Sans Mono,Consolas,monospace" font-size="13" text-anchor="end" font-weight="700" opacity="0">137 ms<animate attributeName="opacity" values="0;0;1;1;0;0" keyTimes="0;0.12;0.121;0.18;0.181;1" dur="12s" repeatCount="indefinite"/></text><text x="294.0" y="113.0" fill="#dceafc" font-family="ui-monospace,SFMono-Regular,Menlo,DejaVu Sans Mono,Consolas,monospace" font-size="13" text-anchor="end" font-weight="700" opacity="0">250 ms<animate attributeName="opacity" values="0;0;1;1" keyTimes="0;0.18;0.181;1" dur="12s" repeatCount="indefinite"/></text>
<rect x="320" y="97" width="315" height="14" fill="#071426" stroke="#13314c"/>
<rect x="320" y="97" width="0" height="14" fill="#ffb703">
<animate attributeName="width" values="0;0;196.9;196.9" keyTimes="0;0.08;0.22;1" dur="12s" repeatCount="indefinite"/>
</rect>
<path d="M700 122H1000" stroke="#13314c" stroke-dasharray="2 4"/>
<polyline points="700.0,129.1 713.0,128.5 726.1,123.6 739.1,129.5 752.2,115.5 765.2,129.8 778.3,131.0 791.3,129.7 804.3,128.0 817.4,130.3 830.4,127.3 843.5,123.1 856.5,124.1 869.6,129.7 882.6,128.7 895.7,129.6 908.7,127.2 921.7,131.2 934.8,126.3 947.8,128.4 960.9,128.0 973.9,126.8 987.0,125.0 1000.0,124.4" fill="none" stroke="#ffb703" stroke-width="2" stroke-linecap="round" stroke-linejoin="round" stroke-dasharray="1000" stroke-dashoffset="1000">
<animate attributeName="stroke-dashoffset" values="1000;1000;0;0" keyTimes="0;0.10;0.30;1" dur="12s" repeatCount="indefinite"/>
</polyline>
<text x="1166.0" y="114.0" fill="#5f89ad" font-family="ui-monospace,SFMono-Regular,Menlo,DejaVu Sans Mono,Consolas,monospace" font-size="11" text-anchor="end">24 checks recorded · 73-483 ms</text>
<rect x="20" y="145" width="1150" height="38" fill="#0a1b30"/>
<path d="M20 184H1170" stroke="#13314c"/>
<text x="28.0" y="162.0" fill="#dceafc" font-family="ui-monospace,SFMono-Regular,Menlo,DejaVu Sans Mono,Consolas,monospace" font-size="13" text-anchor="start" font-weight="700">nexusmart</text>
<rect x="175" y="147" width="60" height="18" fill="#52d1a4"/>
<text x="205.0" y="160.0" fill="#071426" font-family="ui-monospace,SFMono-Regular,Menlo,DejaVu Sans Mono,Consolas,monospace" font-size="12" text-anchor="middle" font-weight="700">200 OK</text>
<text x="294.0" y="161.0" fill="#dceafc" font-family="ui-monospace,SFMono-Regular,Menlo,DejaVu Sans Mono,Consolas,monospace" font-size="13" text-anchor="end" font-weight="700" opacity="0">0 ms<animate attributeName="opacity" values="1;1;0;0" keyTimes="0;0.07;0.071;1" dur="12s" repeatCount="indefinite"/></text><text x="294.0" y="161.0" fill="#dceafc" font-family="ui-monospace,SFMono-Regular,Menlo,DejaVu Sans Mono,Consolas,monospace" font-size="13" text-anchor="end" font-weight="700" opacity="0">53 ms<animate attributeName="opacity" values="0;0;1;1;0;0" keyTimes="0;0.07;0.071;0.12;0.121;1" dur="12s" repeatCount="indefinite"/></text><text x="294.0" y="161.0" fill="#dceafc" font-family="ui-monospace,SFMono-Regular,Menlo,DejaVu Sans Mono,Consolas,monospace" font-size="13" text-anchor="end" font-weight="700" opacity="0">117 ms<animate attributeName="opacity" values="0;0;1;1;0;0" keyTimes="0;0.12;0.121;0.18;0.181;1" dur="12s" repeatCount="indefinite"/></text><text x="294.0" y="161.0" fill="#dceafc" font-family="ui-monospace,SFMono-Regular,Menlo,DejaVu Sans Mono,Consolas,monospace" font-size="13" text-anchor="end" font-weight="700" opacity="0">214 ms<animate attributeName="opacity" values="0;0;1;1" keyTimes="0;0.18;0.181;1" dur="12s" repeatCount="indefinite"/></text>
<rect x="320" y="145" width="315" height="14" fill="#071426" stroke="#13314c"/>
<rect x="320" y="145" width="0" height="14" fill="#ffb703">
<animate attributeName="width" values="0;0;168.5;168.5" keyTimes="0;0.08;0.22;1" dur="12s" repeatCount="indefinite"/>
</rect>
<path d="M700 170H1000" stroke="#13314c" stroke-dasharray="2 4"/>
<polyline points="700.0,170.0 713.0,177.2 726.1,164.5 739.1,177.4 752.2,168.7 765.2,177.6 778.3,174.6 791.3,175.9 804.3,173.9 817.4,178.1 830.4,166.5 843.5,174.7 856.5,171.9 869.6,171.8 882.6,170.4 895.7,172.8 908.7,171.4 921.7,179.8 934.8,171.3 947.8,175.6 960.9,173.6 973.9,179.6 987.0,163.5 1000.0,173.2" fill="none" stroke="#ffb703" stroke-width="2" stroke-linecap="round" stroke-linejoin="round" stroke-dasharray="1000" stroke-dashoffset="1000">
<animate attributeName="stroke-dashoffset" values="1000;1000;0;0" keyTimes="0;0.10;0.30;1" dur="12s" repeatCount="indefinite"/>
</polyline>
<text x="1166.0" y="162.0" fill="#5f89ad" font-family="ui-monospace,SFMono-Regular,Menlo,DejaVu Sans Mono,Consolas,monospace" font-size="11" text-anchor="end">24 checks recorded · 53-449 ms</text>
<rect x="20" y="193" width="1150" height="38" fill="#0c2136"/>
<path d="M20 232H1170" stroke="#13314c"/>
<text x="28.0" y="210.0" fill="#dceafc" font-family="ui-monospace,SFMono-Regular,Menlo,DejaVu Sans Mono,Consolas,monospace" font-size="13" text-anchor="start" font-weight="700">devhire-pro-ats</text>
<rect x="175" y="195" width="60" height="18" fill="#52d1a4"/>
<text x="205.0" y="208.0" fill="#071426" font-family="ui-monospace,SFMono-Regular,Menlo,DejaVu Sans Mono,Consolas,monospace" font-size="12" text-anchor="middle" font-weight="700">200 OK</text>
<text x="294.0" y="209.0" fill="#dceafc" font-family="ui-monospace,SFMono-Regular,Menlo,DejaVu Sans Mono,Consolas,monospace" font-size="13" text-anchor="end" font-weight="700" opacity="0">0 ms<animate attributeName="opacity" values="1;1;0;0" keyTimes="0;0.07;0.071;1" dur="12s" repeatCount="indefinite"/></text><text x="294.0" y="209.0" fill="#dceafc" font-family="ui-monospace,SFMono-Regular,Menlo,DejaVu Sans Mono,Consolas,monospace" font-size="13" text-anchor="end" font-weight="700" opacity="0">82 ms<animate attributeName="opacity" values="0;0;1;1;0;0" keyTimes="0;0.07;0.071;0.12;0.121;1" dur="12s" repeatCount="indefinite"/></text><text x="294.0" y="209.0" fill="#dceafc" font-family="ui-monospace,SFMono-Regular,Menlo,DejaVu Sans Mono,Consolas,monospace" font-size="13" text-anchor="end" font-weight="700" opacity="0">180 ms<animate attributeName="opacity" values="0;0;1;1;0;0" keyTimes="0;0.12;0.121;0.18;0.181;1" dur="12s" repeatCount="indefinite"/></text><text x="294.0" y="209.0" fill="#dceafc" font-family="ui-monospace,SFMono-Regular,Menlo,DejaVu Sans Mono,Consolas,monospace" font-size="13" text-anchor="end" font-weight="700" opacity="0">328 ms<animate attributeName="opacity" values="0;0;1;1" keyTimes="0;0.18;0.181;1" dur="12s" repeatCount="indefinite"/></text>
<rect x="320" y="193" width="315" height="14" fill="#071426" stroke="#13314c"/>
<rect x="320" y="193" width="0" height="14" fill="#ffb703">
<animate attributeName="width" values="0;0;258.3;258.3" keyTimes="0;0.08;0.22;1" dur="12s" repeatCount="indefinite"/>
</rect>
<path d="M700 218H1000" stroke="#13314c" stroke-dasharray="2 4"/>
<polyline points="700.0,223.9 713.0,223.7 726.1,223.1 739.1,216.3 752.2,223.4 765.2,223.3 778.3,223.4 791.3,227.2 804.3,223.2 817.4,223.5 830.4,213.8 843.5,218.7 856.5,216.8 869.6,223.5 882.6,216.9 895.7,224.2 908.7,223.5 921.7,227.4 934.8,212.1 947.8,221.9 960.9,220.9 973.9,223.4 987.0,217.2 1000.0,211.5" fill="none" stroke="#ffb703" stroke-width="2" stroke-linecap="round" stroke-linejoin="round" stroke-dasharray="1000" stroke-dashoffset="1000">
<animate attributeName="stroke-dashoffset" values="1000;1000;0;0" keyTimes="0;0.10;0.30;1" dur="12s" repeatCount="indefinite"/>
</polyline>
<text x="1166.0" y="210.0" fill="#5f89ad" font-family="ui-monospace,SFMono-Regular,Menlo,DejaVu Sans Mono,Consolas,monospace" font-size="11" text-anchor="end">24 checks recorded · 47-328 ms</text>
<g clip-path="url(#chart-clip)" opacity="0.65">
<line x1="320" y1="88" x2="320" y2="244" stroke="#4cc9f0" stroke-width="1.5" stroke-dasharray="4 4">
<animate attributeName="x1" values="320;320;1166;1166;320;320" keyTimes="0;0.08;0.62;0.86;0.97;1" dur="12s" repeatCount="indefinite"/>
<animate attributeName="x2" values="320;320;1166;1166;320;320" keyTimes="0;0.08;0.62;0.86;0.97;1" dur="12s" repeatCount="indefinite"/>
</line>
</g>
<path d="M10 270H1190" stroke="#13314c"/>
<text x="28.0" y="283.0" fill="#5f89ad" font-family="ui-monospace,SFMono-Regular,Menlo,DejaVu Sans Mono,Consolas,monospace" font-size="12" text-anchor="start" font-weight="700">METHOD: TWO HTTPS GET SAMPLES PER TARGET · BAR SCALE 0-400 MS</text>
<text x="1172.0" y="283.0" fill="#4cc9f0" font-family="ui-monospace,SFMono-Regular,Menlo,DejaVu Sans Mono,Consolas,monospace" font-size="12" text-anchor="end" font-weight="700">INSTRUMENT SHEET / REV 01</text>
</svg>
