<?xml version="1.0" encoding="UTF-8"?>
<svg xmlns="http://www.w3.org/2000/svg" width="1200" height="300" viewBox="0 0 1200 300" role="img" aria-label="Instrument test report showing deployment availability and latency">
<defs>
<pattern id="minor-grid" width="10" height="10" patternUnits="userSpaceOnUse"><path d="M 10 0 L 0 0 0 10" fill="none" stroke="#0d2338" stroke-width="1"/></pattern>
<pattern id="major-grid" width="50" height="50" patternUnits="userSpaceOnUse"><rect width="50" height="50" fill="url(#minor-grid)"/><path d="M 50 0 L 0 0 0 50" fill="none" stroke="#13314c" stroke-width="1"/></pattern>
<clipPath id="chart-clip"><rect x="320" y="86" width="846" height="162"/></clipPath>
</defs>
<rect width="1200" height="300" fill="#071426"/>
<rect width="1200" height="300" fill="url(#major-grid)"/>
<rect x="10" y="10" width="1180" height="280" fill="none" stroke="#4cc9f0" stroke-width="1.5"/>
<path d="M10 70H1190M10 258H1190M306 70V258" stroke="#13314c" stroke-width="1"/>
<rect x="28" y="20" width="455" height="35" fill="#0a1b30" stroke="#4cc9f0"/>
<text x="42.0" y="42.0" fill="#dceafc" font-family="ui-monospace,SFMono-Regular,Menlo,DejaVu Sans Mono,Consolas,monospace" font-size="14" text-anchor="start" font-weight="700">TEST REPORT · AVAILABILITY &amp; LATENCY</text>
<text x="1172.0" y="42.0" fill="#dceafc" font-family="ui-monospace,SFMono-Regular,Menlo,DejaVu Sans Mono,Consolas,monospace" font-size="12" text-anchor="end" font-weight="700">UTC 2026-09-03T16:40:12Z</text>
<text x="28.0" y="84.0" fill="#5f89ad" font-family="ui-monospace,SFMono-Regular,Menlo,DejaVu Sans Mono,Consolas,monospace" font-size="12" text-anchor="start" font-weight="700">TARGET</text>
<text x="205.0" y="84.0" fill="#5f89ad" font-family="ui-monospace,SFMono-Regular,Menlo,DejaVu Sans Mono,Consolas,monospace" font-size="12" text-anchor="middle" font-weight="700">HTTP</text>
<text x="294.0" y="84.0" fill="#5f89ad" font-family="ui-monospace,SFMono-Regular,Menlo,DejaVu Sans Mono,Consolas,monospace" font-size="12" text-anchor="end" font-weight="700">LATEST</text>
<text x="320.0" y="84.0" fill="#5f89ad" font-family="ui-monospace,SFMono-Regular,Menlo,DejaVu Sans Mono,Consolas,monospace" font-size="12" text-anchor="start" font-weight="700">LATENCY SCALE / 0-400 MS</text>
<text x="1166.0" y="84.0" fill="#5f89ad" font-family="ui-monospace,SFMono-Regular,Menlo,DejaVu Sans Mono,Consolas,monospace" font-size="12" text-anchor="end" font-weight="700">RECORDED HISTORY</text>
<path d="M320 92V246M425 92V246M530 92V246M635 92V246" stroke="#13314c" stroke-dasharray="2 4"/>
<text x="320.0" y="258.0" fill="#5f89ad" font-family="ui-monospace,SFMono-Regular,Menlo,DejaVu Sans Mono,Consolas,monospace" font-size="12" text-anchor="start">0</text>
<text x="425.0" y="258.0" fill="#5f89ad" font-family="ui-monospace,SFMono-Regular,Menlo,DejaVu Sans Mono,Consolas,monospace" font-size="12" text-anchor="middle">150</text>
<text x="530.0" y="258.0" fill="#5f89ad" font-family="ui-monospace,SFMono-Regular,Menlo,DejaVu Sans Mono,Consolas,monospace" font-size="12" text-anchor="middle">300</text>
<text x="635.0" y="258.0" fill="#5f89ad" font-family="ui-monospace,SFMono-Regular,Menlo,DejaVu Sans Mono,Consolas,monospace" font-size="12" text-anchor="middle">400</text>
<rect x="20" y="97" width="1150" height="38" fill="#0c2136"/>
<path d="M20 136H1170" stroke="#13314c"/>
<text x="28.0" y="114.0" fill="#dceafc" font-family="ui-monospace,SFMono-Regular,Menlo,DejaVu Sans Mono,Consolas,monospace" font-size="13" text-anchor="start" font-weight="700">portfolio</text>
<rect x="175" y="99" width="60" height="18" fill="#52d1a4"/>
<text x="205.0" y="112.0" fill="#071426" font-family="ui-monospace,SFMono-Regular,Menlo,DejaVu Sans Mono,Consolas,monospace" font-size="12" text-anchor="middle" font-weight="700">200 OK</text>
<text x="294.0" y="113.0" fill="#dceafc" font-family="ui-monospace,SFMono-Regular,Menlo,DejaVu Sans Mono,Consolas,monospace" font-size="13" text-anchor="end" font-weight="700" opacity="0">0 ms<animate attributeName="opacity" values="1;1;0;0" keyTimes="0;0.07;0.071;1" dur="12s" repeatCount="indefinite"/></text><text x="294.0" y="113.0" fill="#dceafc" font-family="ui-monospace,SFMono-Regular,Menlo,DejaVu Sans Mono,Consolas,monospace" font-size="13" text-anchor="end" font-weight="700" opacity="0">37 ms<animate attributeName="opacity" values="0;0;1;1;0;0" keyTimes="0;0.07;0.071;0.12;0.121;1" dur="12s" repeatCount="indefinite"/></text><text x="294.0" y="113.0" fill="#dceafc" font-family="ui-monospace,SFMono-Regular,Menlo,DejaVu Sans Mono,Consolas,monospace" font-size="13" text-anchor="end" font-weight="700" opacity="0">81 ms<animate attributeName="opacity" values="0;0;1;1;0;0" keyTimes="0;0.12;0.121;0.18;0.181;1" dur="12s" repeatCount="indefinite"/></text><text x="294.0" y="113.0" fill="#dceafc" font-family="ui-monospace,SFMono-Regular,Menlo,DejaVu Sans Mono,Consolas,monospace" font-size="13" text-anchor="end" font-weight="700" opacity="0">148 ms<animate attributeName="opacity" values="0;0;1;1" keyTimes="0;0.18;0.181;1" dur="12s" repeatCount="indefinite"/></text>
<rect x="320" y="97" width="315" height="14" fill="#071426" stroke="#13314c"/>
<rect x="320" y="97" width="0" height="14" fill="#52d1a4">
<animate attributeName="width" values="0;0;116.5;116.5" keyTimes="0;0.08;0.22;1" dur="12s" repeatCount="indefinite"/>
</rect>
<path d="M700 122H1000" stroke="#13314c" stroke-dasharray="2 4"/>
<polyline points="700.0,128.8 713.0,131.9 726.1,128.1 739.1,129.4 752.2,124.4 765.2,130.2 778.3,131.7 791.3,128.4 804.3,123.9 817.4,128.4 830.4,128.1 843.5,128.5 856.5,121.1 869.6,131.9 882.6,119.5 895.7,129.0 908.7,115.5 921.7,124.0 934.8,128.3 947.8,127.8 960.9,127.6 973.9,129.8 987.0,121.4 1000.0,128.8" fill="none" stroke="#52d1a4" stroke-width="2" stroke-linecap="round" stroke-linejoin="round" stroke-dasharray="1000" stroke-dashoffset="1000">
<animate attributeName="stroke-dashoffset" values="1000;1000;0;0" keyTimes="0;0.10;0.30;1" dur="12s" repeatCount="indefinite"/>
</polyline>
<text x="1166.0" y="114.0" fill="#5f89ad" font-family="ui-monospace,SFMono-Regular,Menlo,DejaVu Sans Mono,Consolas,monospace" font-size="11" text-anchor="end">24 checks recorded · 60-524 ms</text>
<rect x="20" y="145" width="1150" height="38" fill="#0a1b30"/>
<path d="M20 184H1170" stroke="#13314c"/>
<text x="28.0" y="162.0" fill="#dceafc" font-family="ui-monospace,SFMono-Regular,Menlo,DejaVu Sans Mono,Consolas,monospace" font-size="13" text-anchor="start" font-weight="700">nexusmart</text>
<rect x="175" y="147" width="60" height="18" fill="#52d1a4"/>
<text x="205.0" y="160.0" fill="#071426" font-family="ui-monospace,SFMono-Regular,Menlo,DejaVu Sans Mono,Consolas,monospace" font-size="12" text-anchor="middle" font-weight="700">200 OK</text>
<text x="294.0" y="161.0" fill="#dceafc" font-family="ui-monospace,SFMono-Regular,Menlo,DejaVu Sans Mono,Consolas,monospace" font-size="13" text-anchor="end" font-weight="700" opacity="0">0 ms<animate attributeName="opacity" values="1;1;0;0" keyTimes="0;0.07;0.071;1" dur="12s" repeatCount="indefinite"/></text><text x="294.0" y="161.0" fill="#dceafc" font-family="ui-monospace,SFMono-Regular,Menlo,DejaVu Sans Mono,Consolas,monospace" font-size="13" text-anchor="end" font-weight="700" opacity="0">46 ms<animate attributeName="opacity" values="0;0;1;1;0;0" keyTimes="0;0.07;0.071;0.12;0.121;1" dur="12s" repeatCount="indefinite"/></text><text x="294.0" y="161.0" fill="#dceafc" font-family="ui-monospace,SFMono-Regular,Menlo,DejaVu Sans Mono,Consolas,monospace" font-size="13" text-anchor="end" font-weight="700" opacity="0">101 ms<animate attributeName="opacity" values="0;0;1;1;0;0" keyTimes="0;0.12;0.121;0.18;0.181;1" dur="12s" repeatCount="indefinite"/></text><text x="294.0" y="161.0" fill="#dceafc" font-family="ui-monospace,SFMono-Regular,Menlo,DejaVu Sans Mono,Consolas,monospace" font-size="13" text-anchor="end" font-weight="700" opacity="0">185 ms<animate attributeName="opacity" values="0;0;1;1" keyTimes="0;0.18;0.181;1" dur="12s" repeatCount="indefinite"/></text>
<rect x="320" y="145" width="315" height="14" fill="#071426" stroke="#13314c"/>
<rect x="320" y="145" width="0" height="14" fill="#ffb703">
<animate attributeName="width" values="0;0;145.7;145.7" keyTimes="0;0.08;0.22;1" dur="12s" repeatCount="indefinite"/>
</rect>
<path d="M700 170H1000" stroke="#13314c" stroke-dasharray="2 4"/>
<polyline points="700.0,177.3 713.0,180.4 726.1,173.9 739.1,179.8 752.2,163.5 765.2,177.1 778.3,173.8 791.3,175.1 804.3,171.4 817.4,178.7 830.4,169.5 843.5,176.1 856.5,165.0 869.6,174.9 882.6,170.3 895.7,176.6 908.7,165.9 921.7,179.0 934.8,169.8 947.8,177.7 960.9,174.0 973.9,177.5 987.0,168.2 1000.0,175.5" fill="none" stroke="#ffb703" stroke-width="2" stroke-linecap="round" stroke-linejoin="round" stroke-dasharray="1000" stroke-dashoffset="1000">
<animate attributeName="stroke-dashoffset" values="1000;1000;0;0" keyTimes="0;0.10;0.30;1" dur="12s" repeatCount="indefinite"/>
</polyline>
<text x="1166.0" y="162.0" fill="#5f89ad" font-family="ui-monospace,SFMono-Regular,Menlo,DejaVu Sans Mono,Consolas,monospace" font-size="11" text-anchor="end">24 checks recorded · 46-524 ms</text>
<rect x="20" y="193" width="1150" height="38" fill="#0c2136"/>
<path d="M20 232H1170" stroke="#13314c"/>
<text x="28.0" y="210.0" fill="#dceafc" font-family="ui-monospace,SFMono-Regular,Menlo,DejaVu Sans Mono,Consolas,monospace" font-size="13" text-anchor="start" font-weight="700">devhire-pro-ats</text>
<rect x="175" y="195" width="60" height="18" fill="#52d1a4"/>
<text x="205.0" y="208.0" fill="#071426" font-family="ui-monospace,SFMono-Regular,Menlo,DejaVu Sans Mono,Consolas,monospace" font-size="12" text-anchor="middle" font-weight="700">200 OK</text>
<text x="294.0" y="209.0" fill="#dceafc" font-family="ui-monospace,SFMono-Regular,Menlo,DejaVu Sans Mono,Consolas,monospace" font-size="13" text-anchor="end" font-weight="700" opacity="0">0 ms<animate attributeName="opacity" values="1;1;0;0" keyTimes="0;0.07;0.071;1" dur="12s" repeatCount="indefinite"/></text><text x="294.0" y="209.0" fill="#dceafc" font-family="ui-monospace,SFMono-Regular,Menlo,DejaVu Sans Mono,Consolas,monospace" font-size="13" text-anchor="end" font-weight="700" opacity="0">59 ms<animate attributeName="opacity" values="0;0;1;1;0;0" keyTimes="0;0.07;0.071;0.12;0.121;1" dur="12s" repeatCount="indefinite"/></text><text x="294.0" y="209.0" fill="#dceafc" font-family="ui-monospace,SFMono-Regular,Menlo,DejaVu Sans Mono,Consolas,monospace" font-size="13" text-anchor="end" font-weight="700" opacity="0">130 ms<animate attributeName="opacity" values="0;0;1;1;0;0" keyTimes="0;0.12;0.121;0.18;0.181;1" dur="12s" repeatCount="indefinite"/></text><text x="294.0" y="209.0" fill="#dceafc" font-family="ui-monospace,SFMono-Regular,Menlo,DejaVu Sans Mono,Consolas,monospace" font-size="13" text-anchor="end" font-weight="700" opacity="0">238 ms<animate attributeName="opacity" values="0;0;1;1" keyTimes="0;0.18;0.181;1" dur="12s" repeatCount="indefinite"/></text>
<rect x="320" y="193" width="315" height="14" fill="#071426" stroke="#13314c"/>
<rect x="320" y="193" width="0" height="14" fill="#ffb703">
<animate attributeName="width" values="0;0;187.4;187.4" keyTimes="0;0.08;0.22;1" dur="12s" repeatCount="indefinite"/>
</rect>
<path d="M700 218H1000" stroke="#13314c" stroke-dasharray="2 4"/>
<polyline points="700.0,227.6 713.0,222.5 726.1,223.2 739.1,223.7 752.2,223.2 765.2,225.1 778.3,222.0 791.3,227.6 804.3,219.9 817.4,221.0 830.4,221.8 843.5,221.2 856.5,222.8 869.6,222.7 882.6,220.5 895.7,221.1 908.7,211.5 921.7,222.8 934.8,220.3 947.8,222.9 960.9,221.7 973.9,220.6 987.0,218.8 1000.0,218.8" fill="none" stroke="#ffb703" stroke-width="2" stroke-linecap="round" stroke-linejoin="round" stroke-dasharray="1000" stroke-dashoffset="1000">
<animate attributeName="stroke-dashoffset" values="1000;1000;0;0" keyTimes="0;0.10;0.30;1" dur="12s" repeatCount="indefinite"/>
</polyline>
<text x="1166.0" y="210.0" fill="#5f89ad" font-family="ui-monospace,SFMono-Regular,Menlo,DejaVu Sans Mono,Consolas,monospace" font-size="11" text-anchor="end">24 checks recorded · 52-394 ms</text>
<g clip-path="url(#chart-clip)" opacity="0.65">
<line x1="320" y1="88" x2="320" y2="244" stroke="#4cc9f0" stroke-width="1.5" stroke-dasharray="4 4">
<animate attributeName="x1" values="320;320;1166;1166;320;320" keyTimes="0;0.08;0.62;0.86;0.97;1" dur="12s" repeatCount="indefinite"/>
<animate attributeName="x2" values="320;320;1166;1166;320;320" keyTimes="0;0.08;0.62;0.86;0.97;1" dur="12s" repeatCount="indefinite"/>
</line>
</g>
<path d="M10 270H1190" stroke="#13314c"/>
<text x="28.0" y="283.0" fill="#5f89ad" font-family="ui-monospace,SFMono-Regular,Menlo,DejaVu Sans Mono,Consolas,monospace" font-size="12" text-anchor="start" font-weight="700">METHOD: TWO HTTPS GET SAMPLES PER TARGET · BAR SCALE 0-400 MS</text>
<text x="1172.0" y="283.0" fill="#4cc9f0" font-family="ui-monospace,SFMono-Regular,Menlo,DejaVu Sans Mono,Consolas,monospace" font-size="12" text-anchor="end" font-weight="700">INSTRUMENT SHEET / REV 01</text>
</svg>
